<?xml version="1.0" encoding="UTF-8"?>
<svg id="_レイヤー_2" data-name="レイヤー 2" xmlns="http://www.w3.org/2000/svg" xmlns:xlink="http://www.w3.org/1999/xlink" viewBox="0 0 443 443.45">
  <defs>
    <style>
      .cls-1 {
        fill: url(#_名称未設定グラデーション_68-2);
      }

      .cls-1, .cls-2, .cls-3, .cls-4 {
        stroke-width: 0px;
      }

      .cls-2, .cls-5 {
        fill: none;
      }

      .cls-3 {
        fill: url(#_名称未設定グラデーション_68);
      }

      .cls-4 {
        fill: url(#_名称未設定グラデーション_102);
      }

      .cls-6 {
        fill: #fff;
        stroke: #fff;
      }

      .cls-6, .cls-5 {
        stroke-miterlimit: 10;
      }

      .cls-5 {
        stroke: #e50012;
      }
    </style>
    <radialGradient id="_名称未設定グラデーション_102" data-name="名称未設定グラデーション 102" cx="45.97" cy="229.95" fx="45.97" fy="229.95" r="330.01" gradientUnits="userSpaceOnUse">
      <stop offset="0" stop-color="#449a38"/>
      <stop offset="0" stop-color="#66ac5d"/>
      <stop offset="0" stop-color="#8fc287"/>
      <stop offset="0" stop-color="#b1d5ac"/>
      <stop offset="0" stop-color="#cde4ca"/>
      <stop offset="0" stop-color="#e3f0e1"/>
      <stop offset="0" stop-color="#f2f8f2"/>
      <stop offset="0" stop-color="#fcfdfb"/>
      <stop offset="0" stop-color="#fff"/>
      <stop offset="0" stop-color="#004070"/>
      <stop offset="0" stop-color="#1b2f60"/>
      <stop offset="0" stop-color="#71b930"/>
      <stop offset=".9" stop-color="#528756"/>
    </radialGradient>
    <radialGradient id="_名称未設定グラデーション_68" data-name="名称未設定グラデーション 68" cx="221.5" cy="221.67" fx="221.5" fy="221.67" r="221.29" gradientUnits="userSpaceOnUse">
      <stop offset="0" stop-color="#fff"/>
      <stop offset=".35" stop-color="#007a8c"/>
      <stop offset=".41" stop-color="#00768a"/>
      <stop offset="1" stop-color="#023c6e"/>
      <stop offset="1" stop-color="#1b2f60"/>
      <stop offset="1" stop-color="#1b2f60"/>
    </radialGradient>
    <radialGradient id="_名称未設定グラデーション_68-2" data-name="名称未設定グラデーション 68" cx="127.7" cy="146.23" fx="127.7" fy="146.23" r=".25" xlink:href="#_名称未設定グラデーション_68"/>
  </defs>
  <g id="_レイヤー_1-2" data-name="レイヤー 1">
    <path class="cls-6" d="M169.98,435.72C74.91,412.59,4.34,326.89,4.34,224.71,4.34,104.77,101.57,7.54,221.5,7.54s217.16,97.23,217.16,217.16-97.23,217.16-217.16,217.16c-17.75,0-35.01-2.13-51.52-6.15"/>
    <path class="cls-5" d="M165.79,221.52c-.1-.02-.18-.03-.27-.06"/>
    <path class="cls-4" d="M381.87,315.68c-4.59-26.96-16.78-51.33-34.31-70.82-1.92-2.16-3.91-4.25-5.98-6.28-2.16-2.11-4.36-4.16-6.64-6.14,0-.02-.02-.05-.02-.06-5.8-21.95-16.73-41.83-31.44-58.26-1.82-2.05-3.7-4.04-5.65-5.99-25.67-25.58-61.11-41.39-100.23-41.39-24.82,0-48.16,6.38-68.47,17.57,0,0-.02.02-.03.02-2.06,1.42-4.22,2.69-6.49,3.82,0,0-.02.02-.03.02-7.25,3.61-15.45,5.64-24.09,5.64-5.62,0-11.03-.85-16.14-2.43v.02c-3.04-.92-6.3-1.42-9.65-1.42-18.52,0-33.53,15.01-33.53,33.53,0,1.55.1,3.08.31,4.57,1.88-.42,3.77-.79,5.67-1.08.53-.11,1.05-.19,1.58-.27,7.41-1.21,15.03-1.84,22.77-1.84,21.55,0,41.8,6.25,41.8,6.25s28.48,8.76,51.03,28.28c1.13.98,2.24,1.98,2.24,1.98.49.44.91.83,1.23,1.12,0,0,1.9.47,1.9.47s-1.9-.46-1.9-.47c0,0,1.44.43,3.3.63.79.08,1.63.13,1.74.13.48.02.97.03,1.47.03.92,0,1.82-.03,2.72-.13,10.15-.79,19.02-6.14,24.59-14,1.37-1.9,2.53-3.95,3.46-6.12,1.77-4.07,2.74-8.57,2.74-13.29,0-4.03-.71-7.91-2.01-11.48,6.06-8.55,16.04-14.13,27.33-14.13,18.51,0,33.53,15.01,33.53,33.53,0,.61-.02,1.22-.05,1.82-.95,17.67-15.59,31.7-33.48,31.7-6.7,0-12.93-1.97-18.17-5.35l-.06.1c-1.93-1.18-4.2-1.85-6.64-1.85-7.07,0-12.8,5.73-12.8,12.8,0,2.87.95,5.52,2.54,7.65l-.06.05c19.12,24.19,30.52,54.74,30.52,87.97,0,28.86-8.6,55.71-23.4,78.11-6.94,10.53-15.22,20.07-24.66,28.36,1.05.21,2.11.42,3.17.61,1.06.19,2.13.37,3.19.55.79.14,1.58.26,2.37.39.1.02.18.03.26.03.19.05.39.06.58.1l1.05.15c1.29.18,3.16.44,5.43.74,6.44.85,9.65,1.27,13.22,1.53,2.43.18,5.39.2,11.32.25,6.53.06,9.87.08,12.97-.19,0,0,1.44-.12,9.27-1.06.5-.05,1.23-.12,2.11-.21,3.58-.37,15.28-1.69,29.53-5.19,12.25-3,24.11-7,35.49-11.9,26.58-11.45,50.51-27.85,70.63-48,3.21-11.84,4.91-24.27,4.91-37.12,0-8.2-.69-16.23-2.05-24.06ZM166.88,178.75c-7.07,0-12.8-5.73-12.8-12.8,0-1.76.35-3.41.98-4.93,1.93-4.62,6.49-7.88,11.82-7.88,3.29,0,6.27,1.22,8.52,3.25,2.63,2.35,4.28,5.75,4.28,9.55,0,7.07-5.73,12.8-12.8,12.8Z"/>
    <path class="cls-3" d="M443,222.11c0,114.93-87.5,209.4-199.54,220.43-.71.08-1.42.14-2.11.21l-2.64-.03c24.51-2.14,47.9-8.2,69.53-17.52,26.58-11.45,50.51-27.85,70.63-48,3.21-11.84,4.91-24.27,4.91-37.12,0-8.2-.69-16.24-2.05-24.06-4.57-26.83-16.67-51.1-34.06-70.56-1.92-2.16-3.91-4.25-5.98-6.28-2.14-2.14-4.36-4.2-6.65-6.2-.08-.06-.14-.13-.23-.19-5.77-21.87-16.62-41.67-31.21-58.06-1.82-2.05-3.7-4.04-5.65-5.99,0,0-23.51-23.48-57.12-34.92-8.86-3.01-18.89-4.98-21.28-5.36-1.32-.21-2.63-.4-2.63-.4-.98-.14-3.27-.44-6.25-.71-2.11-.19-3.72-.28-5.22-.37-.94-.05-1.63-.08-1.89-.09-.54-.02-1.14-.04-1.98-.07-1.17-.03-2.38-.06-3.96-.07-1.01,0-2.5,0-4.42.07-.21,0-1.41.07-3.8.2-1.83.1-2.75.15-3.44.2,0,0-1.55.12-3.29.31-12.1,1.32-24.92,5.19-24.92,5.19-11.59,3.49-21.37,8-28.73,11.93,0,0-.02.02-.03.02-.67.33-1.2.62-1.58.83-.29.16-.57.33-.71.42-.55.33-.65.41-.98.6-.4.24-.87.49-1.8.98-.22.12-.42.22-.59.31-.17.09-.25.13-.31.16-.27.14-.34.16-.63.31-.14.07-.15.08-.27.14-.18.09-.33.16-.39.19-.1.05-.1.05-.25.12-.08.04-.14.07-.26.12-.21.1-.37.17-.39.18-.26.12-.5.23-.73.32-1.26.54-2.4.97-2.4.97-1.29.49-2.34.83-2.94,1.02-.79.25-1.39.42-1.84.54-1.21.34-2.1.59-3.3.83-.78.16-1.42.26-2.62.45-.54.08-1.18.17-1.25.18-.08.01-.16.02-.16.02-.08.01-.14.02-.16.02-.02,0-.08,0-.14.02,0,0-.19.02-.35.04-.09.01-.24.03-.47.05,0,0-.37.04-.67.07-.76.07-2.52.11-2.52.11-1.65.03-1.57.15-2.75.15-.96,0-1.35-.06-2.74-.17-3.67-.28-4.98-.17-6.95-.64-.15-.04-.44-.11-1.1-.26-1.47-.35-1.74-.38-2.79-.64-.74-.18-1.23-.32-1.58-.42-.39-.11-.71-.22-.95-.29-2.9-.93-5.24-1.24-6.79-1.34-1.53-.11-3.13-.07-3.64-.06-.53.01-1.99.04-3.41.18-3.64.37-6.47,1.45-7.99,2.04-2.29.89-4.02,1.84-5,2.42-4.68,2.75-7.47,5.87-8.28,6.82-1.16,1.35-2.1,2.73-2.48,3.31-.63.97-.99,1.72-1.15,1.94,0,0-.15.22-.18.35,0,.01-.01.06-.03.12-.02.04-.04.07-.05.09-.04.07-.08.15-.13.22-.05.09-.07.14-.12.24-.09.18-.15.28-.25.45-.19.33-.32.63-.55,1.09,0,0-.08.16-.15.32-.86,1.86-1.58,4.14-1.59,4.17h0c-.22.76-.38,1.41-.49,1.92,0,0-.42,1.82-.67,3.68-.01.1-.11.81-.14,1.3,0,.1-.03.4-.04.66,0,.04,0,.13-.02.25,0,.09,0,.17-.01.23,0,.11,0,.17,0,.2,0,.09,0,.16,0,.18,0,.18-.01.27-.01.29,0,.11.01.16,0,.24,0,.01-.02.09-.02.09h0c.01.38.02.49.02.49,0,.08,0,.07,0,.24,0,.12,0,.22,0,.29.02.37.02.66.02.87,0,0-.02.71.03.92,0,0,.02.07.02.14,0,.03,0,.07,0,.12,0,.06-.02.07-.02.11,0,.03,0,.08.05.14,0,.05.01.12.02.21,0,.05,0,.07,0,.1,0,.13.02.21.04.36.01.1,0,.06.03.26,0,0,.03.31.06.57,0,0,0,.02,0,.03,0,.04.01.11.02.2.01.08.02.14.02.17.01.09.01.09.01.1.01.14-.06.32-.13.33-.08,0-.15-.24-.15-.26.08-.02.2-.05.35-.08.28-.07.24-.04.32-.07,0,0,.26-.07.38-.08,0,0,0,0,.02,0,.06,0,.11-.01.11-.01-.09.01-.11.01-.11.01,0,0,.09-.02.24-.05.23-.05.34-.08.34-.07,0,0-.25.07-.25.07,0,0,.01,0,.03,0,0,0,.02,0,.02,0,0,0,.02,0,.03,0,.04-.01.08-.02.08-.03.12-.04.32-.07.32-.07.17-.02.37-.08.85-.19.71-.15,1.36-.24,1.36-.24,0,0,.23-.04.4-.07.19-.03.29-.05.41-.07.15-.02.36-.06.61-.09.83-.15,1.87-.33,3.07-.52.48-.08,2.04-.32,4.15-.58,2.76-.34,5.02-.54,6.41-.65,1.47-.12,3.49-.25,5.89-.34,2.62-.1,4.62-.1,5.28-.1,1.34,0,5.44.03,10.84.49,4.34.36,7.6.84,9.53,1.13,3.89.58,6.75,1.14,9.24,1.64,0,0,3.71.74,6.21,1.38.08.02.49.13,1.08.28.51.13,1.01.26,1.52.39.33.08.49.13.75.2.29.08.37.11.7.2.32.09.4.11.69.18,0,0,.38.1.93.27,30.78,9.28,53.32,30.08,53.32,30.08.7.65,1.25,1.17,1.48,1.39-2.58.98-6.35,2.56-10.65,4.95-33.05,18.38-44.33,55.19-48.99,70.06-4.21,13.43-6.48,27.72-6.48,42.54,0,4.69.23,9.31.68,13.88.74,7.68,2.09,15.19,4.03,22.45,4.35,16.51,11.6,31.83,21.16,45.4C51.27,386.05,0,310.08,0,222.11c0-57,21.55-108.99,56.92-148.27,1.14-1.27,2.3-2.53,3.48-3.77,1.21-1.29,2.43-2.54,3.67-3.8,3.37-3.4,6.83-6.68,10.4-9.86.02-.02.03-.03.06-.05,5.98-5.28,12.22-10.26,18.73-14.9.72-.53,1.45-1.05,2.19-1.53,2.17-1.5,4.36-2.96,6.59-4.41.03-.02.05-.03.06-.03,1.5-.95,3.01-1.9,4.53-2.82,1.51-.92,3.03-1.82,4.56-2.71.02,0,.03-.02.05-.02,1.53-.89,3.08-1.74,4.62-2.59.79-.43,1.59-.87,2.42-1.29,2.35-1.24,4.74-2.45,7.14-3.61,2.43-1.18,4.9-2.3,7.39-3.38,1.5-.66,3.01-1.3,4.53-1.93.24-.1.5-.21.77-.31,1.42-.58,2.83-1.14,4.25-1.69,1.22-.47,2.45-.92,3.69-1.37,1.19-.43,2.4-.85,3.61-1.26,8.15-2.8,16.51-5.14,25.06-6.96,1.43-.32,2.87-.61,4.3-.89,2.14-.42,4.28-.81,6.44-1.14,1.68-.29,3.37-.55,5.06-.79,1.84-.26,3.69-.48,5.54-.69,8.34-.97,16.85-1.45,25.45-1.45s17.54.52,26.09,1.53c1.39.15,2.77.32,4.16.52.52.06,1.03.15,1.55.23,1.27.18,2.54.37,3.8.58,3.48.55,6.93,1.19,10.34,1.92,3.88.82,7.73,1.74,11.53,2.75.32.08.64.18.98.27,2.42.64,4.83,1.35,7.22,2.09,1.8.56,3.62,1.14,5.41,1.76,1.71.58,3.4,1.18,5.07,1.79.87.32,1.72.64,2.59.97,1.68.64,3.32,1.3,4.98,1.97.02,0,.03.02.05.02,6.31,2.58,12.48,5.44,18.51,8.58,6.65,3.46,13.09,7.26,19.33,11.35,2.08,1.37,4.12,2.77,6.14,4.19,2.03,1.43,4.04,2.9,6.04,4.41,3.93,3.01,7.78,6.12,11.5,9.36.95.81,1.88,1.64,2.82,2.48,2.82,2.53,5.57,5.14,8.25,7.81,3.77,3.75,7.41,7.65,10.9,11.68t.02.02c2.11,2.43,4.17,4.91,6.18,7.44.95,1.18,1.87,2.37,2.79,3.58,28.41,37.25,45.26,83.78,45.26,134.23Z"/>
    <path class="cls-2" d="M178.45,439.05c1.05.21,2.11.42,3.17.61s2.13.37,3.19.55c.79.14,1.58.26,2.37.39.1.02.18.03.26.03.19.05.39.06.58.1M241.28,442.15c.69-.06,1.4-.13,2.11-.21,112.03-11.03,199.54-105.5,199.54-220.43,0-50.44-16.85-96.98-45.26-134.23-.92-1.21-1.84-2.4-2.79-3.58-2.01-2.53-4.07-5.01-6.18-7.44t-.02-.02c-3.5-4.03-7.14-7.92-10.9-11.68-2.67-2.67-5.43-5.28-8.25-7.81-.93-.84-1.87-1.68-2.82-2.48-3.72-3.24-7.57-6.35-11.5-9.36-2-1.51-4.01-2.98-6.04-4.41-2.01-1.42-4.06-2.82-6.14-4.19-6.23-4.09-12.68-7.89-19.33-11.35-6.02-3.14-12.19-6.01-18.51-8.58-.02,0-.03-.02-.05-.02-1.66-.66-3.3-1.32-4.98-1.96-.87-.32-1.72-.64-2.59-.97-1.68-.61-3.37-1.21-5.07-1.79-1.79-.61-3.61-1.19-5.41-1.76-2.38-.74-4.8-1.45-7.22-2.09-.34-.1-.66-.19-.98-.27-3.8-1.01-7.65-1.93-11.53-2.75-3.41-.72-6.86-1.37-10.34-1.92-1.26-.21-2.53-.4-3.8-.58-.52-.08-1.03-.16-1.55-.23-1.39-.19-2.77-.37-4.16-.52-8.55-1.01-17.27-1.53-26.09-1.53s-17.1.48-25.45,1.45c-1.85.21-3.7.43-5.54.69-1.69.24-3.38.5-5.06.79-2.16.34-4.3.72-6.44,1.14-1.43.27-2.87.56-4.3.89-8.55,1.82-16.91,4.16-25.06,6.96-1.21.4-2.42.82-3.61,1.26-1.24.45-2.46.9-3.69,1.37-1.42.55-2.83,1.11-4.25,1.69-.27.1-.53.21-.77.31-1.51.63-3.03,1.27-4.53,1.93-2.5,1.08-4.96,2.21-7.39,3.38-2.4,1.16-4.78,2.37-7.14,3.61-.82.42-1.63.85-2.42,1.29-1.55.85-3.09,1.71-4.62,2.59-.02,0-.03.02-.05.02-1.53.89-3.04,1.79-4.56,2.71s-3.03,1.87-4.53,2.82c-.02,0-.03.02-.06.03-2.22,1.45-4.41,2.92-6.59,4.41-.74.48-1.47,1-2.19,1.53-6.51,4.64-12.76,9.62-18.73,14.9-.03.02-.05.03-.06.05-3.58,3.17-7.04,6.46-10.4,9.86-1.24,1.26-2.46,2.51-3.67,3.8-1.18,1.24-2.34,2.5-3.48,3.77M194.49,441.61c-1.82-.21-3.62-.47-5.43-.74"/>
    <path class="cls-1" d="M127.98,146.43c-.19-.14-.39-.27-.58-.41"/>
  </g>
</svg>