{
	"bufferViews":[{
		"buffer":0,
		"byteOffset":0,
		"byteLength":1548,
		"target":34963
	},
	{
		"buffer":0,
		"byteOffset":1548,
		"byteLength":24768,
		"target":34962,
		"byteStride":32
	},
	{
		"buffer":1,
		"byteOffset":0,
		"byteLength":8016,
		"target":34963
	},
	{
		"buffer":1,
		"byteOffset":8016,
		"byteLength":128256,
		"target":34962,
		"byteStride":32
	}],
	"asset":{
		"version":"2.0",
		"generator":"Sketchfab-12.66.0",
		"copyright":""
	},
	"scenes":[{
		"nodes":[0]
	}],
	"materials":[{
		"pbrMetallicRoughness":{
			"baseColorFactor":[0.231,
			0.231,
			0.231,
			1.0],
			"metallicFactor":0.0,
			"roughnessFactor":0.6
		},
		"emissiveFactor":[0.0,
		0.0,
		0.0],
		"alphaMode":"OPAQUE",
		"doubleSided":true,
		"name":"lambert3"
	},
	{
		"pbrMetallicRoughness":{
			"baseColorFactor":[1.0,
			0.0,
			0.0,
			1.0],
			"metallicFactor":0.0,
			"roughnessFactor":0.6
		},
		"emissiveFactor":[0.0,
		0.0,
		0.0],
		"alphaMode":"OPAQUE",
		"doubleSided":true,
		"name":"lambert2"
	}],
	"nodes":[{
		"name":"Scene 0",
		"children":[1]
	},
	{
		"name":"Scene 0",
		"children":[2]
	},
	{
		"name":"ヌル",
		"translation":[0.0018336059292778373,
		1.5493624210357667,
		-0.0005869678570888937],
		"rotation":[0.0,
		0.0,
		0.0,
		-1.0],
		"scale":[1.0,
		1.0,
		1.0],
		"children":[3]
	},
	{
		"name":"Sketchfab_Scene",
		"translation":[-0.0707106813788414,
		-4.440891999238953e-18,
		0.0],
		"rotation":[0.0,
		0.0,
		0.3826834261417389,
		-0.9238795042037964],
		"scale":[1.0,
		1.0,
		1.0],
		"children":[4]
	},
	{
		"name":"Sketchfab_model",
		"translation":[0.0,
		0.0,
		0.0],
		"rotation":[0.7071067690849304,
		0.0,
		0.0,
		-0.7071067690849304],
		"scale":[1.0,
		0.9999998807907105,
		0.9999998807907105],
		"children":[5]
	},
	{
		"name":"53373a3e457e40529cf532d18cb7d75a.fbx",
		"translation":[0.0,
		0.0,
		0.0],
		"rotation":[-0.7071067690849304,
		0.0,
		0.0,
		-0.7071067690849304],
		"scale":[1.0,
		0.9999998807907105,
		0.9999998807907105],
		"children":[6]
	},
	{
		"name":"RootNode",
		"children":[7]
	},
	{
		"name":"pSphere4",
		"translation":[0.06823898106813431,
		0.028265535831451417,
		0.0],
		"rotation":[0.0,
		0.0,
		0.3826834261417389,
		0.9238795042037964],
		"scale":[1.0,
		1.0,
		1.0],
		"children":[8,
		9]
	},
	{
		"name":"polySurface1",
		"children":[10]
	},
	{
		"name":"polySurface2",
		"children":[11]
	},
	{
		"name":"polySurface1_lambert3_0",
		"mesh":0
	},
	{
		"name":"polySurface2_lambert2_0",
		"mesh":1
	}],
	"meshes":[{
		"name":"polySurface1_lambert3_0",
		"primitives":[{
			"attributes":{
				"POSITION":1,
				"NORMAL":2,
				"TEXCOORD_0":3
			},
			"indices":0,
			"material":0
		}]
	},
	{
		"name":"polySurface2_lambert2_0",
		"primitives":[{
			"attributes":{
				"POSITION":5,
				"NORMAL":6,
				"TEXCOORD_0":7
			},
			"indices":4,
			"material":1
		}]
	}],
	"accessors":[{
		"bufferView":0,
		"type":"SCALAR",
		"componentType":5123,
		"count":774,
		"byteOffset":0,
		"min":[0],
		"max":[773]
	},
	{
		"bufferView":1,
		"type":"VEC3",
		"componentType":5126,
		"count":774,
		"byteOffset":0,
		"min":[-0.050000011920928958,
		-1.5194178819656373,
		-0.05000002309679985],
		"max":[0.05000000447034836,
		0.00371653214097023,
		0.05000000819563866]
	},
	{
		"bufferView":1,
		"type":"VEC3",
		"componentType":5126,
		"count":774,
		"byteOffset":12,
		"min":[-1.0,
		-0.17529211938381196,
		-1.0],
		"max":[1.0,
		0.0,
		1.0]
	},
	{
		"bufferView":1,
		"type":"VEC2",
		"componentType":5126,
		"count":774,
		"byteOffset":24,
		"min":[0.34374237060546877,
		-0.00003814697265625],
		"max":[0.65625,
		0.6884307861328125]
	},
	{
		"bufferView":2,
		"type":"SCALAR",
		"componentType":5123,
		"count":4008,
		"byteOffset":0,
		"min":[0],
		"max":[4007]
	},
	{
		"bufferView":3,
		"type":"VEC3",
		"componentType":5126,
		"count":4008,
		"byteOffset":0,
		"min":[-0.6025782227516174,
		-1.1175870895385743e-8,
		-0.6025784611701965],
		"max":[0.6025782227516174,
		1.7124269008636475,
		0.6025782823562622]
	},
	{
		"bufferView":3,
		"type":"VEC3",
		"componentType":5126,
		"count":4008,
		"byteOffset":12,
		"min":[-0.9987334609031677,
		-1.0,
		-0.9987334609031677],
		"max":[0.9987334609031677,
		1.0,
		0.9987334609031677]
	},
	{
		"bufferView":3,
		"type":"VEC2",
		"componentType":5126,
		"count":4008,
		"byteOffset":24,
		"min":[0.000030517578125,
		-0.00003814697265625],
		"max":[1.0,
		1.0]
	}],
	"buffers":[{
		"uri":"data:application/octet-stream;base64,",
		"byteLength":26316
	},
	{
		"uri":"data:application/octet-stream;base64,",
		"byteLength":136272
	}]
}